<mxfile host="65bd71144e">
    <diagram id="HIP3nbAZw_EuaXWnEj3U" name="Page-1">
        <mxGraphModel dx="637" dy="531" grid="1" gridSize="10" guides="1" tooltips="1" connect="1" arrows="1" fold="1" page="1" pageScale="1" pageWidth="850" pageHeight="1100" background="#ffffff" math="0" shadow="0">
            <root>
                <mxCell id="0"/>
                <mxCell id="1" parent="0"/>
                <mxCell id="7" value="http://ics2o.mths.ca" style="swimlane;whiteSpace=wrap;html=1;" parent="1" vertex="1">
                    <mxGeometry x="40" y="40" width="760" height="500" as="geometry"/>
                </mxCell>
                <mxCell id="8" value="Area" style="swimlane;whiteSpace=wrap;html=1;strokeColor=#000000;" parent="7" vertex="1">
                    <mxGeometry width="760" height="500" as="geometry"/>
                </mxCell>
                <mxCell id="10" value="&lt;font color=&quot;#000000&quot; style=&quot;font-size: 21px;&quot;&gt;Volume of a Square-Based Pyramid, with JS&lt;/font&gt;" style="whiteSpace=wrap;html=1;strokeColor=#10739e;fillColor=#b1ddf0;" parent="8" vertex="1">
                    <mxGeometry x="10" y="30" width="740" height="60" as="geometry"/>
                </mxCell>
                <mxCell id="11" value="&lt;div style=&quot;text-align: left;&quot;&gt;&lt;span style=&quot;background-color: initial;&quot;&gt;Formula:&amp;nbsp; &amp;nbsp; &amp;nbsp; &amp;nbsp; &amp;nbsp;&amp;nbsp;&lt;/span&gt;&lt;/div&gt;V = (L x W x H) / 3" style="text;html=1;align=center;verticalAlign=middle;resizable=0;points=[];autosize=1;strokeColor=none;fillColor=none;fontSize=21;fontColor=#000000;" parent="8" vertex="1">
                    <mxGeometry x="10" y="100" width="200" height="60" as="geometry"/>
                </mxCell>
                <mxCell id="12" value="Please enter dimensions:" style="text;html=1;align=left;verticalAlign=middle;resizable=0;points=[];autosize=1;strokeColor=none;fillColor=none;fontSize=21;fontColor=#000000;" parent="8" vertex="1">
                    <mxGeometry x="10" y="190" width="270" height="40" as="geometry"/>
                </mxCell>
                <mxCell id="13" value="" style="edgeStyle=none;html=1;fontSize=21;fontColor=#000000;" parent="8" source="14" edge="1">
                    <mxGeometry relative="1" as="geometry">
                        <mxPoint x="185.0000000000025" y="270" as="targetPoint"/>
                    </mxGeometry>
                </mxCell>
                <mxCell id="14" value="Length:" style="text;html=1;align=center;verticalAlign=middle;resizable=0;points=[];autosize=1;strokeColor=none;fillColor=none;fontSize=21;fontColor=#000000;" parent="8" vertex="1">
                    <mxGeometry x="5" y="250" width="100" height="40" as="geometry"/>
                </mxCell>
                <mxCell id="15" value="" style="rounded=1;whiteSpace=wrap;html=1;strokeColor=#000000;fontSize=21;fontColor=#000000;fillColor=#FFFFFF;" parent="8" vertex="1">
                    <mxGeometry x="110" y="255" width="120" height="25" as="geometry"/>
                </mxCell>
                <mxCell id="16" value="mm" style="text;html=1;align=center;verticalAlign=middle;resizable=0;points=[];autosize=1;strokeColor=none;fillColor=none;fontSize=21;fontColor=#000000;" parent="8" vertex="1">
                    <mxGeometry x="230" y="250" width="60" height="40" as="geometry"/>
                </mxCell>
                <mxCell id="17" value="Width:" style="text;html=1;align=center;verticalAlign=middle;resizable=0;points=[];autosize=1;strokeColor=none;fillColor=none;fontSize=21;fontColor=#000000;" parent="8" vertex="1">
                    <mxGeometry x="15" y="290" width="80" height="40" as="geometry"/>
                </mxCell>
                <mxCell id="18" value="" style="rounded=1;whiteSpace=wrap;html=1;strokeColor=#000000;fontSize=21;fontColor=#000000;fillColor=#FFFFFF;" parent="8" vertex="1">
                    <mxGeometry x="110" y="297.5" width="120" height="25" as="geometry"/>
                </mxCell>
                <mxCell id="19" value="" style="rounded=1;whiteSpace=wrap;html=1;strokeColor=#000000;fontSize=21;fontColor=#000000;fillColor=#FFFFFF;" parent="8" vertex="1">
                    <mxGeometry x="110" y="340" width="120" height="25" as="geometry"/>
                </mxCell>
                <mxCell id="20" value="mm" style="text;html=1;align=center;verticalAlign=middle;resizable=0;points=[];autosize=1;strokeColor=none;fillColor=none;fontSize=21;fontColor=#000000;" parent="8" vertex="1">
                    <mxGeometry x="230" y="290" width="60" height="40" as="geometry"/>
                </mxCell>
                <mxCell id="21" value="mm" style="text;html=1;align=center;verticalAlign=middle;resizable=0;points=[];autosize=1;strokeColor=none;fillColor=none;fontSize=21;fontColor=#000000;" parent="8" vertex="1">
                    <mxGeometry x="230" y="332.5" width="60" height="40" as="geometry"/>
                </mxCell>
                <mxCell id="22" value="Height:" style="text;html=1;align=center;verticalAlign=middle;resizable=0;points=[];autosize=1;strokeColor=none;fillColor=none;fontSize=21;fontColor=#000000;" parent="8" vertex="1">
                    <mxGeometry x="10" y="332.5" width="90" height="40" as="geometry"/>
                </mxCell>
                <mxCell id="23" value="Calculate" style="rounded=1;whiteSpace=wrap;html=1;strokeColor=#000000;fontSize=21;fontColor=#000000;fillColor=#FFFFFF;" parent="8" vertex="1">
                    <mxGeometry x="15" y="390" width="170" height="40" as="geometry"/>
                </mxCell>
                <mxCell id="25" value="&lt;span style=&quot;background-color: rgb(255, 255, 255); font-size: 21px;&quot;&gt;Volume is: 40 mm&lt;span style=&quot;font-family: arial, sans-serif; text-align: left;&quot;&gt;Â³&lt;/span&gt;&lt;/span&gt;" style="text;html=1;align=center;verticalAlign=middle;resizable=0;points=[];autosize=1;strokeColor=none;fillColor=none;fontColor=#000000;" parent="8" vertex="1">
                    <mxGeometry x="10" y="440" width="200" height="40" as="geometry"/>
                </mxCell>
                <mxCell id="26" value="" style="shape=image;verticalLabelPosition=bottom;labelBackgroundColor=default;verticalAlign=top;aspect=fixed;imageAspect=0;image=data:image/png,iVBORw0KGgoAAAANSUhEUgAAASAAAAEECAYAAACIvumgAAAAAXNSR0IArs4c6QAAIABJREFUeJzsnXmYVNWZ/z+1d/W+0ftObyD7IooKgqJRQFkaEVAUEDUmODGLSZ7J5Dd5nplkjGNiEnFBxAUUQdAAgghqFFAUFZClm26aXul9X6uqa/v94ZzrraKbtZruhvN5nn5ooOrUubfu/d73vNvRuN1uNxKJRNIHaPt6AhKJ5OpFCpBEIukzpABJJJI+QwqQRCLpM6QASSSSPkMKkEQi6TOkAEkkkj5DL9KANBrNBb2xp/QhOY5EIjlfpAUkkUj6DClAEomkz5ACJJFI+gwpQBKJpM+QAiSRSPoMjayGl0gkfYW0gCQSSZ8hBUgikfQZUoAkEkmfIQVIIpH0GVKAJBJJnyEFSCKR9BlSgCQSSZ8hBUgikfQZUoAkEkmfIQVIIpH0GVKAJBJJnyEFSCKR9BlSgCQSSZ8hBUgikfQZUoAkEkmfIQVIIpH0GVKAJBJJnyEFSCKR9BlSgCQSSZ8hBUgikfQZUoAkEkmfIQVIIpH0GVKAJBJJnyEFSCKR9BlSgCQSSZ8hBUgikfQZUoAkEkmfIQVIIpH0GVKAJBJJn6Hv6wlIzo7b7e723zUazYAdpz/NRY7Tt+NIC0gikfQZUoAkEkmfIQVIIpH0GVKAJBJJnyEFSHLJXKgz8kJfL7ly0bh7cnFLJBJJLyMtIIlE0mdIAZJIJH2GFCCJRNJnSAGSSCR9hhQgSZ8h4x8SWQsmuey43W7lR6vVotFocLlcHuF5Gaq/OpACJLnsqC0fh8MBfC84Wq0WrVZ7xuukGF25yDwgSZ/gcDhwu90YDAZFaNxutyI2wjqSXNnIb1hy2RHLLa1Wi9PpxO1243A4PJZh6ueifEZeucglmKRPUAuQxWLB7XbjcrkwmUyYTKZu/UKSKw8pQJLLjlarpbOzE71eT21tLevXr6ewsJCJEyfyox/9iEGDBuFyuZTXShG6cpEC1M8ZCF3tzjaO9+uFZWMwGNBoNHz99desXLmSmpoaPvvsM/R6PXfffTc6nQ6j0XjB8zjbXC50LDlO748jfUCSXkWj0Xj8iItQq9VSV1fHtm3bqK6uxm63U1payjPPPMPx48fPeG9340oGPlKAJJcFkfcjRMhqtbJlyxY+/PBD3G43ZrOZmJgY8vLyeOaZZ6ioqMBqteJ2uxVHtXRGX3lIAZL0Gk6nE5fL1a2IfPnll7z44ovYbDYiIiKwWq2kpKRwww038PHHH7N69WpsNpsylhjH5XIpv0sGPlKAJL2Gegml0+mUqFdhYSGvvfYaJSUlpKenExsbi8vlIiIigvnz55OZmcm6dev44IMPsNvtAB7iJZdfVw5SgCSXTE+CIP7d4XAoeT6NjY289957vPfee2RlZTF06FCioqLQ6XQUFBQwbNgwli1bhr+/P08++ST79+9Xlm6yVOPKQwpQP8fbiduTU7YvxzkXIp/HarVy8OBBNmzYQExMDJmZmURERGA2mzGZTBQWFlJZWcnMmTOZPn067e3t/PnPfyYvL08Zx+12Y7fbPayh/nxu5DhnH0cKkKRXcTqdSrlFVVUVf/nLX6itrWXGjBkkJiYSEhJCUlISAQEBdHV1cfDgQYxGIw899BB33nknn3zyCf/4xz9obW1VcoJ0Oh3gWdSq/pEMHKQASXoNl8uFTqfD5XLR1tbGhg0b+PLLLxk3bhwjR45Er9cTHx9PVFQU/v7+6PV6du7cSV1dHdnZ2Tz++OOMHDmSnTt38vrrr9PV1YXdbkej0eBwOOQy7ApACpCk19Bqtdjtdmw2Gx999BEvvfQSWVlZzJo1i/b2dqxWK6mpqRiNRqUS/tixY9TX12O32xk7dizLly/HbDazcuVKtm7ditPpVERIMvCRAiTpNYTfp7q6mldeeQWHw8GcOXPIzs6mpqaGmJgYUlNTMZlM6HQ6AgICsNvtfP3119hsNvR6PTk5OcyfP5/a2lpWrlzJ0aNH0el0imUll2EDGylAEp8jBMDhcGA0Gnn66ac5evQoEydOZO7cuZw+fZqOjg6SkpIIDg5Gr9crrTk0Gg2ffvopLpcLm81GYGAg8+fPZ/r06Rw7doyXX36Z5uZmxQryFhspPgMLKUCSS0adaCgSBe12O3a7nU2bNrFx40aysrL4xS9+gdFopKysjICAAFJSUvD390er1aLT6YiOjiY0NJSioiKqqqoUYUpLS+M//uM/GD16NDt27OCFF16gra0N+KGhmYi0yQr6gYUUIMklI1prqCvYAXJzc/nTn/5EYGAgCxYsYMyYMZSXl9PY2EhqaiqJiYno9XpFvLKzs8nMzKS2tpbc3FxliWUymcjIyOCxxx4jMjKSv//97+zcuZPOzk6Panmn06mIlmRgIAVIcsk4nU7lT61Wi81mo7W1lZUrV1JeXs68efO46667aG1tpbCwEIfDweDBg4mIiFDe53a7iYuLIzMzk6amJk6cOIHb7Uav/75hg1arZdKkSSxduhSAlStX8tVXXynLMJ1Op1hDkoGDFCDJJSOsH7EEA9iyZQu7d+9m6NChLFu2jLCwMNrb2ykuLmbQoEGK9aMkpGm1mEwmxowZg5+fH3l5ebS3twM/WFjBwcFMnz6dWbNmUVxczNq1aykuLlY6KopGZpKBgxQgySUjbnqdTofdbueLL77gueeeIyIigscee4z09HScTifffvstHR0dSu6PECsAg8EAwM0330xsbCyHDh2ipqZG8es4nU4cDgcpKSn85Cc/4bbbbmPHjh2sXr2ahoYGNBqNUvwqRWjgIAVIckEI0VA3khdLr66uLhobG3nppZcoKCjgrrvuYt68ebjdburq6igtLUWj0ZCcnIy/v78yljqcnpmZSUxMDMXFxdTU1Pzfp37foN7Pzw+NRkN2djZz584lMTGRzZs3s23bNtra2nosEZCh+f6LFKB+jq/yXHwxjljqqMcTGcki52fNmjV8/PHH3HrrrcyePVtJMKysrKSuro60tDSSk5M9QujCfyOsl5tuugm9Xs+//vWv/2vJ4dnIzM/PjzFjxnD//fej1Wp58cUXOXDggMcy0Lt1x9mOtT+d46ttHClAkvNGvY2OOuIllj6FhYW89dZbmM1mnnjiCYYPH47T6cRms5GXl4fdbicuLo7w8HDFrwM/LOHERT1t2jT8/PzYtGmTR76PWI4BxMXFMXfuXG666SZKS0t55ZVXKC8vVwRHjO92/7C9j3rJJ+kfSAGSnDci5O0dbdLr9Zw8eZI//elPNDc38+CDDzJmzBg0Gg1Go5Ha2lqqq6sJDQ0lKysLo9F4RlW1RqPBYDDgcrmIiooiLi6OkpISiouLgR/EQ6PR0NXVBUB0dDQrVqxgypQp7N+/n2eeeYbGxsYzKuZldKz/IgVIct4Iy0csq0SzsKamJtasWcPevXuZOnUqS5cuVfw1Wq2WI0eO0NzcTGJiImlpaWcdW6PREBkZyYgRI3A4HOzevVvxMzmdTqVZvVarxWAwkJ2dzaJFi0hMTGTr1q289957dHR0KEKltoDkRof9D/mNSM4btYNX5P643W52797Nu+++S2hoKPPmzSMyMhK9Xo/D4aC+vp7jx4+j0+nIyMg4Y6cLD3/A/wlbcHAwmZmZAHz66afY7XZ0Op1HREz8qdPpmDRpEosWLUKr1fL888/z6aefKjlEQgTFfCX9CylAVzEXE64WYqHT6dDr9Rw/fpy1a9fS2NjIE088weTJkwkICMBms6HT6SgvL6ezs5Pk5GQyMjLO2P3UO3JlsVjQ6XQMGTKE6OhoSktLqaqqUsRJ/XqxvU9AQABz587l7rvvprq6mldffZWTJ092249aRsP6F1KA+jl91cmwuxtWLL+EP6a2tpZNmzZx6NAh7rzzTu6++24CAgKA7/N6LBYL3377LW1tbSQmJhIYGKhYMt5zEw5jkfk8ZswYIiMjqays5Pjx4x5RM5Hzoy67GDRoEA8//DBTpkxh3759PPvss5SVlSlWkhi/u5+B0DnwSh1HCpDkvFHv5d7V1cW2bdtYs2YN6enpPPzww8TFxQE/XGjV1dWUlZURFRVFeno6JpPJI4LmjRAZp9NJYmIiCQkJtLS0UFhY6LFDhhANgK6uLqWK/pprruHHP/4xo0aN4rXXXmP9+vXYbDZlCad+v6R/IAVIck7U1oLL5UKv13Po0CHeeOMN3G43Dz30ENdee62SkCiylsvKymhpaSE5OZno6GhlvJ6enmqHsUaj4Y477kCn03H48GGPTGf1ckydjwRw7bXXkpOTQ0pKCq+//jq7du0Cfqg3U3+WpO+RAiQ5J97iU1tby9q1azl16hQ5OTlMmjQJo9HokX8jcn80Go3SdkMdSu8J0ZoDYPbs2RiNRvbv369UvquXYaJSXrR+FWH/GTNmsGLFCpxOJ08//TTHjx8/w/ck/UH9AylAkvNGq9VitVrZsGED27ZtY+zYsSxbtozo6GhcLhdGo1ERmdOnT1NZWUl6ejpDhw5Vol9nW4Kp84xsNhvR0dGMGjWKiooKjh496iFOwiISTepFhMzlchEbG8u9997LhAkTyM/P509/+hMlJSUenyUFqH8gBUhyBmqRUIuFzWbj4MGDbN68maCgIObNm0d2drbSUlUkCFqtVnJzc5Wuh2FhYTgcDo9Qe3fY7XZFyMxmM06nk9tuuw2Xy8WuXbuUeYmlmMFgUN4jxtTr9comh7/85S+ZMmUK27Zt48UXX6S1tVU2LetnSAHq5/RVPY/4P3VNVWVlJS+88AJ5eXnk5OQwdepUJeNYnXdTV1dHfn4+wcHBpKenAyh9nNVjeyMsGfVyb8KECej1erZv347NZvMIwYvPVPuNxNg2m43hw4eTk5NDRkYGW7duZcuWLR7je9eKXapFNBBqr/rbOFKAJGcg8nxEqFur1dLR0cHOnTuVHj9z5swhNjYWk8kEoCyHHA4HxcXFNDQ0kJiYSGJiokfPn7MhXicsGo1GQ3x8PMnJyZSXl1NYWKhEyUS4vjtEbyGtVsudd97Jj3/8Yzo6Onjqqac4dOiQYoWJFiCSvkMKkOQMRGsNsaxyOp0cOnSI1atXk5KSwooVK0hNTUWj0SgZz+KJ2NbWRl5eHh0dHaSlpREQEOCRuXw2vHNynE4n8fHxZGZm0t7ezr/+9S/FD3S2J7AQGLfbTXBwMHPmzOHee++lpqaG//zP/1R2WhWlJOp5Sb/Q5UUKkKRbhAjodDpKSkp4/vnnqaqqYubMmUyZMoWAgABFMAwGg9JSo7KyksrKSqKiokhLS/NIPBTLnZ5Q15qJvwcFBZGdnQ3AN998g9VqPS+RENv6uN1uIiIiuO+++5g6dSoffvgha9asoba2VjlOIWjqZacUosuDFCDJGTgcDmUJ1t7eztq1a9m5cye33XYb99xzDxEREYpQiMpz+N6iOHHiBG1tbQwbNozo6GiPavdztcVQZ1mrs6InTpyIyWSiqKiIioqK83Igq4tbdTodo0ePZtmyZQwePJhNmzaxbds2pSG+bNPRd0gBGoD4KoKjdtqqn/iidMFisbBnzx7Wr19PSkoK8+fPJy0tDYfDgcFgUKrNReSpo6ODsrIyjEYjgwcPVvxDYuzzqUYXwiHe43K5GDVqFEFBQZSXlys9oHtazgk/lPhscYxdXV1MnDiRhx56CH9/f9asWcPOnTsV35W6sb7k8iEFqJ/jixqcs42j7pWjtgYcDgd1dXWsXr0al8vFvffey3XXXYder1d2JRVLHPFTWFhIQ0MD6enpJCcnn9EQTNCTEIkxxXzFa8PCwhg7dixNTU2cOnXKIxlRfT7Uy0a1Ixu+r00zm80sXLiQefPmUVpaylNPPUVeXp7in1Kfm4tZgg2E2qv+No4UoKscsdQS0Sdx43V1dfHcc8/x0UcfMWPGDBYvXkx4eDjww3JKfSG2tbVx4sQJrFYr6enphIaG+syPYjKZuOuuu+jq6mL//v1K5nNPCEe1+kIXf4+Ojub+++9n3Lhx7N27lzVr1lBeXo6fnx9dXV0e5R2S3kcK0FWMOuokejK73W4sFgsffvgha9euZfjw4dx7773Ex8d7dBn0fhLW1dVRWVnJoEGDSE5O9thy51KfnhqNhsmTJ2M0Gjl69ChWq/WCjlGg1+ux2+3Ex8fzs5/9jJtuuonNmzfz7rvv0t7erjijRU2bpPeRZ/kqRzzthSWk1WrJz8/nqaeewuVy8fDDDzNixIhuI1lCTLq6ujh58iRVVVUkJSUxaNAgnzp2XS4X8fHxXHPNNdTU1Chh9At5v1hmGQwGjEYjEyZM4IEHHsBoNPLGG2+wfft2pWpeOqUvH1KArmKEgAjLxmg0YrPZeP3118nPz2fKlCksXLhQqePytmDETV1fX8+JEycwGo1kZmZ6FJ76ap4mk4nbb7+dlpYWtm7delYrSm31qH06wt+l1Woxm83MnDmTBx54gOrqav7617/y1VdfYXfYFT+UXIb1PlKArmJExElkBOt0OtatW8fmzZuZNGkSv/71rxVHs3d0SF3KUFVVRX19Penp6SQlJSmv8VW0TiQWDh8+HICvvvpKicBdCEajEbvdriyvIiIieOCBB5g8eTLHjh1j48aNlBSXnDFv2caj95ACdJXgXYOjLjYVDt3Dhw/zzDPP4Ha7WbZsGWPGjPEoexA3puito9FoaG9vJz8/H6vVSlpaGiEhIR6ZyL5AWDApKSmkpqZSWlpKbm7uGccl/t6d8KmLVdWRuUGDBrF8+XImT57M5s2befPNN2lra/PI3BbHK5dmvkcK0FVAd+Ijfhc3d2VlJX/84x8pKipi4cKF3HzzzR7RLhFFUofWdToddXV1lJSUMGjQIFJSUpQdK3ydT2O1WklNTSU5OZnKykr27NnT7bGda2kmjgW+F7agoCCmTJnCkiVLCAoK4u2332bv3r2KX0ydpiA2YZT4DilAVwHd5csASqZwZ2cnW7Zs4bPPPmPMmDEsX76cwMBAD+tHbWUIR63FYqG4uBir1UpmZiZxcXEeTm1f3awiP8jPz4+srCw0Gg3FxcW0t7d7HNu5LC7v+agtuZtvvpnly5djt9v5/e9/z4cffkhXV5eyzBTvlyF63yIF6CpCfbMKa8blcnHo0CHWrFlDcHAw/+///T+SkpI8XicsJnVoWqPR0NjYqESkkpOTMZvNHmP78kY1GAzo9Xquv/56APLz86murvY4rnOJgzgWIbxijhqNhvDwcGbPns0dd9xBbm4uGzdupKioSKlzkz2EegcpQFcJPfVzqaio4A9/+AOnT59mxYoV3HTTTcoySpRYdNdvx+VyUVtbS0NDAwkJCSQmJiqtO9SWhS/nrtVqGTlyJAEBARw9epSSkhKP3KQLRQiX2PQwNTWVnJwcJkyYwI4dO3jllVeorq72SLqUfiDfIgXoKkDcoOrNBAEaGxtZu3Ytx44dY+LEicyZM0fZ+93bqestJq2trRQUFGCxWJSuh2ontS9RZzWHhIQwYcIEOjo6OH36tCIe59soS92RUcxTCKfBYGD8+PH88pe/JDs7m02bNvHee+/R2Nh4xnvlUsw3SAHq5/iiG516uSEsCbfbzeeff86GDRtISEjgoYceIjo6WskGFmKidtiq51RXV0dBQQHBwcEkJiYqrxP+moutp+rpHAixCAwM5M4778Rut/PVV195vEYsk7w/t6fsa7WfSrzH39+fSZMmMXv2bHQ6HWvWrOGzzz6jvb3dI5fI+3vo6Xu6mHNwNY0jBegqQHzZRqNRueEKCgpYvXo11dXVLFq0iMmTJ6PRaDxanPaE0+mktLSUhoYGkpOTSUxM9Ogu6Gtfidv9Q2sOs9nMuHHj0Ol0HDt2DKvVekb28sUItPq9QUFB5OTksGDBAvLy8li1ahWlpaXK+VG/Vp0VLrlwpABdRQgroqamhrfeeosjR46Qk5PDnDlzlO1tzoVGo6G5uZni4mLMZjOpqamK87mn5dqlol4Oil0vRo8eTV1dHQcPHlSibkIcLqaOS1h+4hzEx8cza9Yspk6dyrFjx3j99dcpLy9XOkTK5ZdvkAJ0FSCKTZ1OJ11dXezevZt169aRmprK4sWLSUhIUPooi+Zi3aHekrm6upqoqCgl90fckL1RxCnGFLtuhIWFMW7cOKqqqvjiiy+UuV3sZ6utGHW71+zsbB5//HGys7NZu3Yt7777rrKzhvQB+QYpQFcRBoOBw4cP89Zbb+F0Opk3bx4jR47EYrEou5mK1hzdodFo6OjoUJzPaWlpREREeITs4YeliS8tIbfbrWztbDKZGDx4MBqNhhMnTtDa2uohHBcqDOpiVfW/BQQEMGHCBObOnYvRaOTZZ5/l448/xmKx+Oy4rnakAA1AznVjd7eU0ul0tLS08Oabb3L06FFmzZrF9OnTMZlMSo6NRvN9f2fvaJn6z4aGBmX5lZKScobTWv16X+Ed5dLpdGRnZ5OQkEBBQQG5ubkeTugLRWwZpBZS4VcKCgpixowZPPjggzQ1NbFq1SpOnTrl0cYEem4zKzk7UoD6ORfTS0c80cXN4XQ6sVqtbN++nd27dzN8+HDmzZtHYmKiku+j/izwbI0qxrNarZSWltLS0kJcXBwJCQmKcKlRdyL01TkQyyvxZ0pKCnFxcRQVFVFUVAR8LyRnW0KeC3W+jzrkHhUVxSOPPMKNN97IoUOHePnll2lpaVHe413e4j33izneS+2hNFDGkQJ0BaFe+qjD0W63m2+//Za//OUv2O12HnroISZMmKD0fvb+8S7bEBaI2HKnvb2dxMREAgMDz7lFji8Q81HPLywsjGuuuYaOjg7y8/M9lkW+Ej9xHvV6PfHx8fzmN7/hmmuuYePGjTz99NNYLBYlNO/LtIOrCSlAVxhiiaJeFpWVlbF+/XoKCwuZPXs2EydOVHaE6I7ufDki+lVTU0NISAhJSUnKGL0dgvbOxHY6nUo4Xq/Xc+TIEWpqajx6SvsCl8ultO/o6urihhtu4Gc/+xn+/v6sW7eO999/X0kDUO/aKjl/pABdQajru4QwWCwWPvjgA95//31uvPFGFixYwKBBgxS/x7kSzEQOjtVq5eTJk7S2tpKWlkZsbOxZ+zL7GrWgiqzljIwM/P39KSwspLW1VXmdrxDWltvtxmAw4HK5mDZtGkuWLKG5uZm///3v5ObmKvORFtCFIwXoCkP4a8TN8+233/Lmm28SGBjII488wsiRI5XdTNWtJrpDHW4W+737+fkpNz5cvgZd6op08RMfH8+4ceNobGzk2LFjPrdARDcA9VI2MDCQFStWMGvWLE6cOMF///d/U19fL62fi0QK0BWGutSivLyc559/nuLiYhYsWMCkSZPQarWKo9Z75whvB6O67qm6uprW1lYSExM9ol/qG7Q38b7BXS4X4eHhTJo0iY6ODr766ivF6vPVfEQkTPjKxPghISH8/Oc/Z8SIEXzzzTf8z//8DzU1Nd2mHkir6OxIARrAeC+dxL5eYlPB9evXs2nTJiZPnsyCBQsIDQ1VQsyi0r0n1P/X3t5OQUEBXV1dJCQkKLk/4uZSR4AutV6oJ9R+IPF3s9nMsGHDCAwMpKSkhObmZp99HpzZXVG90eKwYcP4xS9+QUhICK+++irvv/8+drsdl8ul9BGS4nNupAANUNQ3ubjYRcSms7OTAwcO8Nprr5GZmcnixYtJSUlR9r3yThzsDrXAVFdXU1ZWRnBwMMnJyRgMBo/2FJfTF+RNVlYW2dnZFBYWXvBuGReLTqfDYDBw/fXXs2TJEhwOB6+88gr79u1TnNLekUhJ90gBGqB0Z+qLkHB7ezt/+ctf6Ojo4He/+x3XXXedxw0hfD89CZC6rMJisXDq1ClaW1tJSkoiNjbWw7q5HFGwntBoNMTFxZGRkUFVVRXHjx/3eQZ2T3R1dREcHMzdd9/N0qVLqaqq4sUXXyQvLw+tVuvRvlWKUM/4LmYpuex4P2GF+f/CCy+wf/9+fvSjH3HbbbcRFhYG/ODTEKHqnqwXtXVVX19PQUEBLpeLxMREgoKCzphDX2IymcjKykKn0/Hdd9/R0tKiHG9vIgQ9NTWV5cuXk5+fz549e0hJSSEsLIyUlBQlM7uvz1F/RlpAA5Tu/C12u51du3bx1FNPMWrUKB577DGCg4M9spnVjtqeijdFwp/L5aK6upr6+noSEhJIS0tTBEvdrL6vyhCE+I4cOZKoqCi+/PJLysvLe/1zLRaLIuJ6vZ7o6GgeeeQRMjIy2Lx5M++88w5tbW0e3SEl3SMFaIDi7eh1uVwUFxfzj3/8g/DwcGbNmsXo0aM99n5Xl12cq2uh0+nEbrdTWlqKxWIhIyODyMjIM2q+zuVH8gXd3cDqY09ISCAmJoZTp05RUVHhcWwXW6DaExqNBj8/PxwOh7JrRmhoKDfccANz5szB6XSydetW/vWvf3nsQaYWIlk39gNSgPo53Vk63rs0COtm9erVfPfddyxevJg77rhDidqo/T9CFLyXXt6fodPpaGpqoqSkBH9/f9LT0z0amqnxVa3Quc6D91zF54SHhzN06FA6OjrIy8tTSiTUO1qca+zufryPQ31sogZOpCEEBwczd+5c5s6dS1VVFatWreLAgQPY7XbsdrsSobTb7ec8N76KKA6EcaQADWDUPqC9e/fyxhtvkJ6ezooVK0hNTVWcoWeLUvUkcC6Xi7y8PGpra5Utd/qbL0OkHoSEhDB69Gi0Wi2ff/45zc3NSg1bb0SivCOJIk8oOTmZJUuWMHbsWPbv38/GjRs5ffq0h2Cpo4cSaQENSMTF39XVpbQmffLJJ4mMjOTRRx8lJiZGeYLbbLaz3oDdiYpWq6W5uZmjR4+i1+vJyspSevH0J8TNbzAYSEtLIyoqiqKiImpraz1e5+ucJO+xhZg4HA6ys7O5//77GTlyJJs3b2bdunU0Nzd7NMCXOUI/IAVogGK32zGZTEpNUkFBATNnzmTmzJlKCYHD4cDf3/+8Si68l04VFRVUVFQoW+74cqNBXyGWigCJiYlsvujFAAAgAElEQVSMHj2a2tpa8vPzPZZQPTWr98Xng2fVvE6nY/LkyTz00EP4+/uzefNmvvjiC+VB4HA4PFp9XO3IszBAMRqNtLS0sGXLFvbs2cPUqVNZtGgRERERiuNZ3HhnqxDvbgnW1tZGbm4uFouFlJQUZb/3/ogoK4mNjWXkyJE0NzcrzeovRx6Otwi5XC6Cg4O55ZZbmDdvHjU1NaxcuZIDBw7Q1dWlnEdpBX1P/7yqJN2i7lTocDgoKSnhueeeIyQkhIcffpihQ4d6RH1MJlO3+5l3V1cllhFu9/ddD0+dOoWfnx9xcXEYjcazOnT70jISN31AQACZmZlKWYYoED2fXtEXM3+18AiEdQMQHR3NAw88wJw5czhw4ACrV6+mtLTU473iIeGL+QxUpAD1c8RSQlzcYifQ8vJynnrqKU6fPk1OTg633XYbRqNReZ+IzqjLJrwjOuJPEaIXTuvS0lIaGxtJT08nOTnZoxthb0e7ukMdxfOOhonjdLvdXH/99aSmpnL06FFqa2s9toc+n5SBCzku9evUzdxEka5WqyUtLY358+czbNgwPvroI958803a2tro6upSuhGou06qBckX59lX0cneHEcK0ABAfdM5HA4sFgtbtmxhy5Yt3H777cyZM+ei25Gqb1DRxvXEiRPY7XaGDRtGRETEeYePLzciWVIsOTMyMkhMTOTkyZNUVVUpTnq4PFaF+Cwhdm63m/Hjx/PEE08QHBzM2rVr2b59uyKcJpPJY35Xo2/o6jraAYiwfoTA+Pn5sXfvXl5//XWioqJYsmQJaWlpirVzoWPDD0lyYr/3qqoq4uLiSElJUZ7m56qe7wvU+TpChMaNG4fJZOJf//oXHR0dl7VYVvjc1G1M/Pz8uPPOO1myZAl2u51XXnmFPXv2KNaOemnb3wT+ciAFqB/jncVrMBiorKxk9erV2Gw2fvKTnzB69GiPG/BCEbVher0ei8XCoUOHaGpqIjMzUwnnA/0yCgYo2cjwvUU0YcIEQkJC2L59O01NTR7iejkRDwSXy4XBYGDRokXMnj2bb775hj//+c9UVFR4dDEQ7+lvIt/bSAHqx4gLU/Rebm5uZtWqVXz22WfcdNNNPPDAAwQFBXk0zrpQxA3gdDppbGzk8OHDBAQEkJGRoczhUnaa6E2Ek1n4T7RaLdHR0cTHx1NWVkZpaanHMq23EZ8FnlsJaTQaEhISWLp0KSNGjODw4cNn7Kyh9iddTVxdRzsAUIfDxWaBoqhx7969rFu3juzsbHJycoiMjFSyfYVz+kKsFPXrbTYbpaWlNDc3K1veqK2f/oaYt4jyiRs3IiKC4cOH43Q6OXjwoLJbRm8mI6oRS1ZhMRoMBuXvmZmZ/OpXvyIrK4tXX32VHTt2eHzfoqHZ5Zprf0AKUD9AmN7e9UvqC/HUqVP8/e9/p7GxkeXLlzN+/HiPHB+j0dhtlOpsiBvX5XJhs9koKCjA7XaTnJxMQECAUj5wOR2555qv97EZjUb0er0iQCEhIaSnp+N2u/nmm2+w2+2XVUDV58o7EdJsNnPHHXcwb948XC4Xzz77rOIPAjxKR6QASS474qby7nBYV1fHW2+9RX5+Pvfccw9TpkwhNDTUI8flYi9YEeGqra2lpKSE8PBwMjIy8PPzU8ZVz6s/oc7FEb+L/kDR0dGcPHlS6dXclze1CCCInUhycnJYuHAhBQUFPPvssxw8eBCHw4HRaLzq2ndIAeoneOfoCGvIYrHw8ccfs3nzZsaOHcuKFSuIioryuPnU/XsuBq1WS2FhIQ0NDQwZMoT4+Phu59XfESIzcuRIkpOTqaysJD8/X7Es+upYhH9KtDiJj49n2bJl3Hzzzezbt48NGzbQ1NR0RqrD1SBEUoD6CWpBEdXVGo2G48eP8/LLL+NwOJg+fTpDhgxRMpOF6IjfL/SCFf6K9vZ28vPz8ff3Jzs7WxlfzEftTO1PqB226j284uPjiY+Pp7GxkcLCQuXc9NX81TVr4txmZWXx2GOPERsbyzvvvMNbb73lIUDe3+WVKkZSgPoBal+BuNDsdjvV1dW89tprHD16lPnz5zN9+nQl4mW325XwsxCLi4mguN1uioqKqKurIyMjg4SEhB6thf4mQN0hhGjGjBkEBATw7bffKrtU9BUixUFYQWKekyZN4le/+hVarZaVK1eye/duOjs7z8j2vlLFB6QA9Qu864qEwHz88cd88MEH3HTTTcybN49BgwYpSy7hdBY/Z7tQ1f+ndnADdHR0kJubS1dXF6mpqcrWPd5LQvWT2fvnUo5ZRPvUkSzvCNfZPqO7m9XpdDJt2jSioqI4dOiQEu4WyX/dzd2Xx9XdOGazWbE4xTGZTCZmzJjB7NmzaW5u5vnnn+fgwYOKJdTdd3Yh8+tuLhdzXL05jhSgfoDIw1EnzeXl5fHmm28SFhZGTk4OGRkZZ7RXVddzqf/sCbWFJV5bU1NDWVkZISEhJCQkXNRGgxf6eofDgc1m8xBPUQbicDiU5dK5mrp397kiATA0NJSUlBSqqqrIz8/3qCdTW0O+tDDONU539WNhYWEsXLiQO+64gwMHDvDCCy/Q1NR0Rv5VT7VwAx0pQP0IcfOfPn2aF198kUOHDjF37lymT5+ubIV8rt4+3aG2XtRLPRF6b2hoUPZ7F6/rTQwGg+ILsdlsGAwGYmJiCAsL8/jsc1l2Z0Or1XLjjTdit9t59913+2UypShxGTlyJEuXLmXw4MF8/vnnrF27ltraWo/C1ov53gcCUoD6AcJJ6XK5aG5u5v3332f37t1MmTKFmTNnEhQUpCQkivR+9U15Pr4ZcSGLJYrb7aapqUnZciclJYXAwMDL8lQVFohwnk+fPp2nnnqKuXPn4u/v/4N5fhGOdfihSn7UqFEEBwfz/vvvY7Va+53FIKwxIUJPPPEEERERvPzyy2zfvp2uri7lu7pSM6SvzKMagIiL7Pjx47z00kuEhITw2GOPkZ6erlykwoJRX4zqJdXZhEi8V0TZNBoNVVVVNDQ0EB8fT1JSkscTt7dRzyMxMZFx48YxePBgRYhF6Fq89kIQwiaiYcXFxRQXF/c7J7qwRrVaLcHBwUyfPp0ZM2bQ1tbG6tWr+fzzz5X/729z9xVSgPoB4uKqq6tjzZo1tLW1cc8993DddddhNBo9smttNhtwab4LjUZDa2srJ0+exO12e2y54+0j6Q3UYXHv/CWn06kk7F3q+AkJCWRmZgKwa9eufpdIqT5+0UlxwYIFzJ07l8LCQl5++WXy8/MVQb4SkTujXka6EwzxpG9tbWXNmjXs2rWLefPmkZOTo5RCqJck6uZgcP7WgbcfqKGhgbKyMoKCgkhNTVV8MueygHzxJBYOZ2FxiSWTQP35Z/s87//zjtSFhYUpzvuDBw9itVoxm80ebVF9WaZxPqUvYn7idyGWwvIbPHgw999/PydPnuTAgQNs2LCBsLAw4uPjle/GOwO+p8/1ldXUm+NIC+gyoq7eFlEOrVZLZ2cnhw4dYuXKlcTGxjJz5kzS0tI8llXighM9fy42s1er1dLV1UVpaSlNTU3ExcWRnJysWB2isXpvIpZfQvDUO0WoBfdiLDzvCOG1116Ln58fZWVl1NbWXrDvrDc4W56VTqdj3LhxLF26lLi4ON544w22bNlCa2urIj7q5fRAL92QAnSZUYeeDQYDDoeDxsZGnnnmGZxOJ48++ijjx4/3+bpfCJ6wfk6cOIHL5SI5OZmQkBBFFC9Hs3QxvmgzUl1dTVFRkU8jPULIJkyYQGhoKIWFhRQVFQEoKQ+XUr7SW4h533bbbdx9993YbDbWrVvH/v37lY4HwnIUvsGB7B+SAtQHiBvNbrej1+tZt24dBw4c4Pbbb2f+/PkEBAR47OrgC8RYTqeTyspKqqqqiI6OJjk52SPprbsm9r2By+WiqamJ9evX8+ijj/LSSy8pjeS7q3q/0LEBJc9mxIgRNDc3c/LkyTOEvb9YD+rj1ev1hIWFMWvWLBYsWEBhYSGrVq0iNzcXt9vtkQE/0MPzUoAuM+ICE+v5rVu38ve//50hQ4bw85//HLPZrOzn5auns1jOGAwGOjs7KSoqoqOjg+TkZCIjI3tt36yeEBZgYGAg8fHx1NXVodfrCQgI8Mn46iRGrVbLokWL0Gg07N+//4y2qf3BelAnkoq5d3V1MXjwYJYsWcINN9zAnj17eO2116irq1NEtD/2abpQpABdZtQ3e1FREb/73e8wmUz89Kc/JTs7G51Op+zB7uubw+12U1NTQ3FxMQEBAaSlpXnspOHtDO4tRKmJwWAgOjoanU5HZGSk8n/ePxeTma2uu/rRj35EWFgY+/bto6urC/hhSdof82u0Wi1+fn7odDquueYaHnzwQVJSUti8eTMbNmygpaVFWUZeju+rN+l/Z/8KQd1YTF1mYbfbsVgstLS08Nxzz3H69Gnmzp3LtGnTlLW9el1/trqsnuiuZkeY7pWVlTQ3N5OUlERsbKySiyOeqpcrB8jPzw+Xy0VxcTEVFRVkZGRgMpmw2+2KSFxsSoB3uUlwcDDDhg1T2nOom7/1F7pbcgpn8+TJk1m+fDl6vZ61a9fy2WefKf8nuiiqGUiOaSlAvYS4oR0OhyJAYntet9vNxx9/zD//+U8mTpzI448/TnBwMIDHzha+cESrRai5uZlTp07hdrtJT08nPDy82/Evx8Xrdrvp7OykpaUFs9mMxWLhtdde49Zbb+XRRx/l9OnTHsmKF4J6eSXGuPnmm3G73axdu1ZxPl/oLiKXC1F6Ib7/sLAwpk+fzty5cykoKOCNN94gPz/fo/WraN8L/XcDge6QAtQLiKeruAgMBoOytNLpdFRUVPDUU09hNBr57W9/S1JSUq/2AhY3YkNDA+Xl5URERJCcnNyn5rter8dut1NRUUFISAihoaHMmzePn/3sZ+Tl5ZGbm6sUrV7oOVH7gMR7x44di5+fHxs2bMDhcChtXPuTFaTGu2o/JiaGhQsXMn36dPbs2cMf//hH6urqPJao6tSGgZK4KAWoFxEhU4fDoSwrqqqq+K//+i+amppYvnw548aNU55cvSVALpeLjo4OiouLsVqtpKene2y5c7kRAm232ykpKSEjI4Nhw4YRGhqqbIQoztfFWinelfQJCQnExcXR2dnJkSNHlH5K/dFSEAmS6gp+rVbL0KFDefTRR0lOTub9999nw4YNNDY2YrfbPYptz2c76v7CwJjlAEOd8SowmUxYLBbeffddtm3bxjXXXENOTo7Se/lSws7nM5+6ujqOHDkCQFxcHH5+fn2aiCcq4SsrK0lISCAyMhK73U5paSk6nY7o6GiPjOVL+SyApKQk0tLScLlcfPrpp4oF1FuifymIB5fw5YgOmX5+fgwbNowf//jH+Pn58de//pVPPvkEvV6v9JNW9xsaCEgB6iXUSwBxoe/fv5+3336boUOHsmzZMhISEjwumt4SILHUqa6uJikpifj4eCWprS8Qzu6GhgasVivx8fHKMrW4uBi73U5gYOBFh5vVyXrC2goODmbo0KG0traSm5vr0Xmwv92s3kEHdZ+o8PBw5s+fz8KFC2lpaWHVqlV88803Z4h0f11aeiMFyAd0VzqgNoFdLheVlZW8/vrrnD59mvvuu49bbrlFaa0hnsY9OYS7i2qdbS7C+Q3f7/clCk/he0sgIiLiojNoL3Q+PSFazvr5+ZGSkoJWq8Vut3P06FEiIiIYNGjQeUWqeppPd8mGU6ZMAaC0tNSjLENtCV3qcflyHJE1r34wud1ugoODWbp0KdOnT+f48eM8/fTTlJWVeQiVWoC959HdHM82zwt9/YWMIwXoEunuKSp+t9lsOJ1OLBYLW7Zs4fPPP2fatGnccsstSoOxi/FxnO3LFzes2ofQ3NxMVVUVYWFhJCUleTSd9wUXk6ej0+nIz8/HZrMp/qiioiKqq6uJj49XHPbiRrqQz/UWVvEwmDBhAmazmcLCQkpLSz2KfX2Br8bpqchWHIfdbueaa67h4YcfJi0tjU8//VTZrltY1MLC7e667E9IAbpEvC8W9ZdsMBjQaDTs3btXKTRdvnw5ycnJvZaHIkK46huruLiY1tZWZfl1sY2+fEVnZydbtmzh008/xWKxsHPnTj7++GPeffdd3O7vkyUPHTqkNOTy1bI0ODiYm266iebmZvLz8/ul/+dsqFuVuN1uxo4dyyOPPEJISAhr167lnXfeURz4A8UJPbDTKPsJ3SWPiSzVEydO8OabbwJw3333MWzYMI+wqWKK+uiCUVeTazQaOjo6KCgoQK/Xk5GRgdls9tjGpy8c0QaDgdGjRxMbG6u0xwgNDSU6Opo777xT2ePdYDAoIWVflR0sXbqUPXv2sG/fPpYuXTqgMonVUTFRR3jXXXdRVVXFypUrWbVqFUOGDGHs2LF9PdXzZuCc/X6O2uIQa3Cn08k777zDJ598wuLFi5k5cyZ+fn6K7+di9/PqCbVPQ8yhsrKS2tpaYmJiyMrKUso81L6Cy41GoyE1NZWkpCTFwjEajR5iLKJk6oZsl4per2fq1Kno9Xq+/fZbj22b+2M43ht1Ow6TyYTb7SYoKIjly5eTm5vLli1bePbZZ3nyyScZM2ZMX0/3vJAC5GPETdTV1cUHH3zAli1bGDZsGLNmzSI2NtZDqEQ42pfWj3oX0NbWVo4dO4bD4VAKT8Vn92UdkV6vV8RF1GyJ3TBEfySj0YjBYPDprqYulws/Pz+uvfZajh8/ztdff80NN9wwYJYr6oZx6uV7eHg4jzzyCM3NzezevZuIiAiio6M9drjtrwyMM9+PEZEHsVQQF/PJkyd5/vnncTqdLF68mJEjR3qE5s+35UR37Sl6er0YV1g3tbW1FBUVYTabSUpKAn5wUvc0ri/nczZMJpPyu3AGGwwGtFot/v7+SmTwbCLZ01zUS1DvuZnNZiZMmEBra6vicxLn7lJ9Qr46Nz2N012kVCzjR48ezf33309UVBS7d+/mvffeo729HUAR8e6Ke89nfr15XFKALhG1RaHT6bBYLLS1tbFx40Y+//xzZs6cybRp0/Dz8/Now+Ed2fAVIm/G6XRSVlZGS0sL8fHxxMXFebymP6C+kLtrj+Hr3Cix3M3MzCQgIIAjR45gtVp9MvblQt2SV/27yWRi6tSp/OQnP8HtdvPaa6/xxRdfeCyzhQiBZyvXvrwepABdIuovV/Q53rVrF1u3bmXatGnMmjWLqKioyxJ5EheS3W6nsbGREydOKH1lQkJC+k3E51yWiy/yaLpDWKDDhw8nOjqa8vJyjh8/7rPx+xKtVktERATz58/nzjvvpLy8XElS7OrqUqrm+9tys3/NZgCiNvedTif5+fm88MILaLVaHn30UbKzs4GL21DwYhDzqKuro66ujpiYGFJSUpRCxd6yvAYCIukzMTFRaYT23XffDZis4Z5QBzPCw8NZsGABkyZNYu/evbz66qtUVFR4tHHtT1x9V6GPEeJjt9uxWq387W9/48iRI0yfPp3JkycTEBDg0XOnt+fidn/fT6ikpIT29naysrKUuipRU+TLsP+lzLO3LJ2eED2o/f39GTVqFG1tbRQVFQ24ZZg34uEinNNjx45l6dKlBAQE8M9//pMPPviAzs7Oftl+RArQJaLT6bDb7UrIfefOndxyyy088MADSh6LePJejhYJDoeDuro68vPzCQgIYOjQoR4XnvpG78unYU8idDmWYQaDgZtuugmNRsOxY8eoq6vz2fh9gXpDAVGYOnHiRJ544gnCw8N56aWX2Lp1KxaLpd/4/wRSgLw4nzIHdadD8fvRo0dZt24dQUFBLF68mMGDByvvUzsLLzWSIOboHb2BH/xQ5eXlNDU1kZycTGJioufnaOhz56P356sdourWJOoloy8QqQcajYbs7GxCQ0M5deoUtbW1HnPqL76ynujuGlJHylwuF4GBgdx///3MmzePiooK1qxZo6RkqAMn6jH7AilA54n6Rnc6nYrZ7nA4aGpq4m9/+xunTp3iF7/4BVOnTgU4o47JlxGd7sZ0u920trby7bffYrPZSE5OVmrOlAsVzyhTX+AdIvd2QHu/xtdRMI3m+y6D119/PY2NjeTl5XmIXV9liF8M3kt7MXetVktQUBBz585l6tSpfPbZZzz//PNUVVUp3RbF0q27tq6XCylAXvQUjRGos2fFJn9btmzhgw8+4Prrr2f27NlnZO76+omqvlEAZetel8tFdXU1BQUFREdHM3jw4H57M4m8KZfLhcViobW11cNP4R0Z8wXCQa/VagkICGDOnDl0dHSwb98+D8urP3dKPF9EOsaQIUN49NFHuf7669m2bRtvvPGGR1RMiFVf+QSlAJ0DtQgJJ664Oex2O/v37+fZZ58lIyODf/u3fyM0NNTjJlKP40vE2Orksq6uLoqLi7FYLGRlZREZGdlv941SO+937drFv//7v7Np0yba2tp6zVemzv42GAyMHDmSkJAQcnNzaW5u9ohoDlS8Exe1Wi0TJkzgkUceISoqik2bNrFlyxalH5J4rbSA+iHq5YAoGRBOZ7HH1gsvvEB9fT0LFy5UdjRVtwP19TJCzEd9o4gtlVtaWjh+/DgajYb4+HjMZnO/3TtKRG3MZjOlpaXs2rWLY8eOAXhUfPu6bYh62RceHs7w4cOprq7m6NGj/SY5z1eI69VsNjNt2jTuu+8+ampq+MMf/qBs0gh926ZDCtA5UC9zRJ9irVaLzWZTEr1mzZrF4sWLPba26Q3hEajHFWJntVopLi6msbGRrKwsZcfTvm690R0ajUaxRETagJ+fn/KjFh5fnj+9Xk9HR4diyYaHhzNixAgaGhr4/PPPlZKF/mo19oR36Ym3X9DlchEVFcWsWbO4/fbbqa+v56WXXuLw4cPKa/pqCSaLUc+B+os0Go10dXWh1+vZtWsXzz33HMOGDeOxxx4jJCTE4z2+unHOJh7ihhHNp/Ly8rDb7Vx77bWEhIR4RHTUkbK+Rp24KURS+IPUPp+L3b3U+/Vqq0YtyGazmYyMDKUVbGtrK+Hh4T5t/3E5ONv5UfvSkpOTWbZsGXV1dezYsYPQ0FCSkpIIDQ1VlvLq2ju1RdjddeiLa0laQGfBW0g6OjowGo0UFxfz5z//GYD58+eTnp5+xvsuB8KhajAYlMLTyMhIZcsdtS+gv9KdWKstSF86oAGlHYn4PTs7m4iICI4ePUp+fj4ajUbJ3xroeCfAms1mRo0axZw5cwgKCuKDDz7go48+UvxBIpghQvXq89+TqF8q/ffK7EN6ch4HBQXR0tLC6tWryc3NZfHixcyYMYOAgACPAlNf+i3O5ksyGo04HA4cDgfHjh2jra2N7OxsBg0apFgYF7O18ZWM+oYSVkFycjInT57k1KlTHhsCDnS80xrg+2t4xowZPPjgg3R2dvLMM8/w6aefYrfblWMWRdPeEcjecCtIAeoBtekpng4Wi4WvvvqK9957j1GjRvHQQw8RHBzs8eX1tsWh9kmJi6GmpobvvvsOs9lMenq6skWLeJ0UoB9Qnwun00lAQAAjRoygs7OTkpISOjs7PSrGBzrCvyOWni6Xi+joaObMmcOkSZPIzc1l/fr15ObmenToBM8as95CCtB5IC7IkpISfv/73xMUFMSKFSuIjY0FPH0VvRXGFRePdymFRqOhoqKCiooK4uLiSEhIUC4c4Ww917h9UZfVV4jkO3HugoODuf7663G73Rw4cICWlpYBs6vouVBb5EKIhMikpKSwdOlSbrjhBnbs2MFrr72m+IDE9SN8c715TUgBOgfixNfV1fGPf/yD06dPM3PmTCZPnqw0zRK7n4plj68/3/tHvcRrbW1VMnkzMjIICQk5o2SkP/uALife2zUL/1lqairx8fGcPn2aqqqqXo1gXk7U2d3ezfD0ej3jx4/npz/9KUlJSbz//vu8+uqrNDU1eYhOdw8+8J11eNVemd2dUG/zU/zdbrezfft2/vnPfzJt2jTuuusuj6iX2mHnq5vdW2jUSzzxY7PZOHz4MOXl5ZjNZpKTk5UN/tQJZur9orwtKO8xuzs/3b1P/HifvwtB/XneTufzdUBfyI0hPs/bxxMTE8MNN9xAXV0dx48f99hjfSCjDkJ49752u7/vK33rrbfywAMP0NXVxcqVK9mxY4fyEFV/F73lhJZh+P9DfUJFoqHIUTlx4gSvv/46YWFh3HfffQwZMqTHL8SX1obISbHb7ZjNZmVuWq2W8vJyduzYwaZNm7Db7SQmJpKbm6us8UU+jWjqLkxqEeEQ1pvT6VTGVDsf4QdhFYImbkp1iFq8/lKO2zux8nyXsZcieOr3R0VFMXLkSLZt26YkQ/bmcvpy0d3c1WLidDrx8/Nj7ty5lJaWsnLlStavX8/w4cMZOnToGd91byAFyAtvJ+/p06eVbOcHH3yQ6667rtudFHx9oYobQK/XK83ZtVotzc3NfPnll7z99tvs3buXqqoq/P39+e6779i3bx96vZ6AgACCgoKIjo4mMTGRqKgoYmJiiI6OJjAwkKCgIMLDwwkODiYgIEDZGkddG6S+SL3n5W2Z9ZRRO1BuXqPRyJAhQwgLC6OwsJCqqiqPFrZXIuI7tFqtJCYmsmTJEgoKCvjyyy957rnn+PWvf63sX9fd9+grcZYC9H+obx7Ru8dqtbJ582a2b9/OHXfcwcKFC/H391eWH8Iy8OUc1Bmt8EMkwuFwkJuby1tvvcWHH35IYWEhiYmJLF++nMjISIqKiigtLaWyspKSkhKsVquy6wT8UN7g7+9PREQEkZGRBAYGEhgYqPw9KSmJrKws4uPjiYiIIDAw0EOIhJ/Lu7GVes7qpd6FFjle7JLHF0ula665hvT0dAoLCzlx4gQxMTFnRIAGiqCeD+L7EltEDR06lN///vf85je/YevWrQwaNIjf/e536PV6j64Ovj4HV70Aeft+RBasVqvl0KFDvPHGG9jxOGUAACAASURBVAQHB5OTk0NsbKwiPFarlYCAgAu++M/Xr6H+wtvb29mxYwcvvfQSX3zxBWazmenTp7NixQpGjx6t7DDR2dmJ0+mks7OTqqoq8vPzOX78OEVFRRQWFlJbW0tHR4eyV7w6+cxgMODn56ck6pnNZsLDw0lKSmL48OGMGzdOyTESwqvT6ZTdX4VjU21B9eQX8k5yO5f/6FznzBcikZCQQHJyMvv376egoEDZR95X4/cnxPlXuxpcLhcTJ05k2bJl/Pu//zuvvvoqw4cP5+677/awiH3tF7tqBUh9g7jd7jOWGpWVlaxatYqOjg6eeOIJxo8fr/yfy+VSbvqe/AqXcqGKC8Jms/HNN9/w5ptv8tFHH1FXV8e4ceOYPXs2M2fOJD09XbmY1HVoYWFhxMfHM3bsWBwOhyIyou1FTU0NZWVlVFVVUV1dTX19Pc3NzdTX11NTU0NzczPV1dWUlpaSm5vLhx9+qFhiRqORiIgIYmNjSUpKIikpiejoaMLCwggODiY8PJzIyEgGDRpEaGiox/Y7vcmlLAlE+HnEiBFs27aNQ4cO0dDQQEREhE/G74+IB6nYSAG+P8bbb7+doqIi/vjHP/Lcc88RGxvLjTfeeMb75RLsPOlJENT1PsLXIv7NZrPx1ltvsXfvXu6++27mzJlDQECAxzg9bW3c05fiPQ8hemILHfGn+P/y8nI2btzIxo0bOXHiBOHh4Tz00EMsXbqUwYMHK34b9RyEE1k9F/VySVg1KSkpXHvttR5Wn81mo62tjZaWFiwWC52dnTQ1NVFSUkJBQQEFBQWUl5dTW1tLVVUVlZWVSkN34Z8ymUyKjykoKAiTyURYWBipqamkp6eTmZlJWloakZGRylJWHIPb7fYo9hUirO5hrY7aqZd53UXwvP/eXURHPQ7AqFGjiIyMZO/evVRWVhIREeFxjnrT59fT3HsD9fELxDIrKiqKRYsW8dVXX/HNN9+wZs0aoqOjycrK8tjxt6fr/0Lnf8ULUE+oT6T3Bbx3717eeustxowZQ05ODlFRUR45FRd6gaiXGg6HQyn4U1thwr/S0NDAvn37ePvttxXLY8yYMaxYsYKpU6cSHBwMeIbQz5eebiCdTofRaCQoKIi4uDjFGvTuJS3mWVVVRUFBAUeOHFGWePX19VitVqxWK3V1dZSVlXlYlU6n02PciIgIhg8fTlZWFuXl5bhcLlpbW8nNzSUkJITg4GD8/PwwmUxKtE49Z+/sXm9L0Nufpn6vOhFRLd6xsbFERkYqqQ1Dhw5VPsdoNJ73eR4IdBe1tVqt+Pn5kZ6eztNPP82TTz7J1q1biY2N5fHHHycuLs6jIZ8vuGoFSFy4ageby+UiLy+P559/nvr6en77298yfvx4j6Xa+TpVu4sIeYeZxQ3jcrno7OykrKxMsXoqKytJTk4mJyeHe+65h8GDB2MwGBShUlsI3p9zqajD8eqtkcVNm5SURGJiIlOnTlVueLEXWXV1NRUVFcrSrrGxkcbGRurr66mtraW+vp7W1lYsFgtff/01X375JZ2dnQBUVFSwa9cuIiIiSEhIIDY2lpCQECIjIwkNDVUEIiwsjJCQEEwmk9ILydtZ6m31AB5CJR4C4t/sdjuRkZGMHj2aAwcOcOTIESZNmqRYauoxusuLORvnsorP57WXA7PZrKRpDBkyhIULF3Lq1CneeecdMjMzmT17thKY6Orqwmg0nmHxXOj8r3gBOtsJEU9Q4YxraWlh27ZtfPfddyxatIjrrrvuDB/Gxfp41BebVqtVcm8A6uvree+993j99dcpKChQnMxLlizh2muvJTg4WBEetXB5LzMuZl49IcYRTzt16wzvzxFL2KioKKKjoxkxYoTH0sVqtWKxWOjo6KCjo4POzk6am5spKSmhpKSEPXv2KLVser2exsZGioqKcLlcSv8eg8FAYGCgkjZgMpmIjIwkLi6OtLQ00tLSSExMZNCgQRiNRkwmE/7+/phMJgwGg5L31N2DQTSZCwkJYfz48axatYpDhw7R1tZGUFCQhwh79/m+VPqTb0lY1QaDAYvFwq233kpZWRn/+7//y5o1a4iJieH2229Xgha+mPsVL0DeqK0dgah/OXz4MG+88QbZ2dk8/PDDJCQkKE/+SzE7vf0yYuknrIANGzbw7rvv0tHRwejRo7nvvvu46667iImJUawuUWDak/ioo0q+wPvCUjcQE//v/Znd+VlEuUNQUNAZnyFe//LLL/OXv/yF6dOn8+CDD9LW1kZeXh6nT5+mtLSU5uZm2tvbPZzlNptNKUERlpoYLz4+npSUFNLS0khJSSExMZHY2Fgl7SA8PJyAgABlL3oR1dPr9SQkJBAaGkpxcTG1tbVKvZ96360LTbrs6XvxLo/oa8T35nA48PPzIywsjPvvv59Tp06xZcsW1q9fT3p6OsnJyUDPftAL4aoTIDXqm+jYsWOsXLkSf39/lixZQkJCQo+VwOcTllUvt9TLApFPU1xczLZt23jvvffIy8sjKSmJhQsXMnfuXIYNG0ZoaKiy3lb7e0ROkDoHSRyDL7Ow1T6Uno6pJ5+Y9/JH/Vr1vwurThyPyWQiPT0dPz8/rrvuOuU9VquVtrY2ZRnX0NBAU1MTzc3NNDQ0UFVVRV1dHU1NTbS0tNDZ2UlhYSHHjx/HYrEo5zE4OJiIiAhiYmIIDw8nNDSU8PBwwsPDSUhIICwsDJvNRlpaGtXV1Rw8eJC4uDjMZrNiVV2M0J/tBu0v4gNnCqJOpyM6OlppYrZnzx5Wr17NT3/6U+Lj433ymVe8AHlfLGpfjtrxu2bNGr7++mt+8pOfcOutt3q851yRLhHFUo+tXoKI97hcLurr6/nkk0/YuHEj+/fvx+FwcMstt7Bo0SKmTp1KSEgIdrsdwKOpmPpY1F3reprTpdKTn+Ns/o+efAHev6sdxkI01f4Z7+9MOKMjIyOVra6FD8xut2OxWBQHuM1mo6mpierqakpKSigvL6empobGxkba29tpb2/n1KlTHD58GKvVqiwfRTtYs9lMdXU1VquVVatW8d1335GSkkJMTAxRUVEYjUZCQ0MJDg5WHOXq+jv1cagtCvXyVaC+TtTnSB0cEefGW+zVhcY9iVh31unZ2muo969zu92Kf238+PEsXryYP//5z7z55pukpqayYMEC/P39PQIV6gDL+XLFCxD0fHPq9Xo6OzvZt28f27dvZ/To0UyfPp3Q0FDlAj9b5EsIjtovoA4rq+ur2traOHHiBO+88w5bt26lurqa9PR05s2bx4wZM8jKylLe6+fnB/yQn3Ku47hSETd0T/8nnM9ms7nbQIF6uWS326mtraW2tpbKykpOnz5NdXU1DQ0NtLe309TURHl5OQ0NDQQFBeFwOPjmm28oKCigo6NDGSsqKkopb4mPjyc6Oprw8HBCQkKUHKjo6GiCg4MVYVJHWsXfxUNLCJQ6AVZcT+LhJd7vLW7iGNVBCXH83st078hgd3gXF4s/NRoNkydP5tSpU/ztb39j/fr1xMbGcueddyppGKLm8ELb2V4VAqTGOxJVVFTESy+9RHh4OD//+c/JyMhQPPzi9eezzPIOi4sLxmazUV5ezs6dO9mxYwfffvst/v7+zJs3j1mzZnHjjTcSFBTkIWbiS73Qp8mVytmiSN4PCO8lhHidXq8nPj6e+Ph4Ro8erbzObrfT2tpKR0cHjY2NivX0xz/+kYKCAu644w70ej11dXW0tLTQ0dFBQ0MDp0+f5tNPP6Wzs1OpvxNWUWhoKEFBQYSGhhIZGUlsbKxSjxccHIz5/7d35UFNnmn8R8idkBCSQIBwBAMIalHQYt3WVtGt9VjRqlWLdu01PWaP7uz5x850ZzrTbbs77e52ujM9ttrWulQ80Na6a1uvVqusaMsNLVe4AgRCEnIByf7hvK9vPhME6gGY3wwDJN/35cv7vd/ve97n+T3PI5FAJpNBKpVCKpVSfxQ5V2IBcXPyWKuKBSEh9sZnH55kXMicHO+DjIhb165di+7ubhQXF+P9999HSkoKZs+eTdM5JtJfbNrPcK6zls3ottvteOONN1BbW4tf//rXyMvLg1gsvkpoFczxyDqzycUnxEEmgsPhwLlz57B7924cO3YMDocDd955Jx5++GHce++9SExMDCidwU4+kuIQxujgLne4yw52uRdse6JJIqF/Ho8Ht9uNjz/+GCaTCUuXLsXq1avh8Xjg9/sp+fT19cFsNqO3t5f6o4jcoLq6GgMDA5T4BAIBhEIhtYhiYmKQkJAArVaL2NhYJCQkUGmBWq2GVquFSqVCdHQ0TY3hOsBZ7Rh5UBFHPFfbxo3AhrIqQ5EHGcf09HRs374ddXV1+Prrr/HRRx9BIpEgLS2NnuN4fVrTnoAICPmwWcDFxcXYs2cP1q5di1WrVkEmkyEiIgJCoTDgSRGKfFhznzWjh4eHUVtbi0OHDqG0tBQ1NTVIS0vDtm3bsHbtWuTm5gaUw2DX3lzdTbiYWGgEWx4Hey0UEXH3IQ+RyMhIzJw5E59++inKysrw4IMPQqvVgsfjITk5Gbm5uQHn4fF4YLVa0dPTQ3VPNpsNvb296Orqospxk8kEm80Gk8mExsZGaoGRriYxMTHQ6XSUfIj+SavVQqfTIT09nTrPibxAIBDA6/VSwSYL7nJtog5vYo37/X5kZmZix44dePHFF/H2228jNjYWjz76KJRKJa1BPp45e9sQEJl85MYuLy/HG2+8AYPBgB07diApKSngQpFBD+VYY0mI/Obz+Whra8Pp06dx4MABWh6DpHMsXLgQGo0mwLohKSDsObLHDWN8vi+u7yLU/ux7rOVAJA95eXmIjo7G6dOn0dvbC4VCEdC6hr0+QqEQsbGxtBkAscQ8Hg+cTmfAj9vtptZTZ2cn9UvZ7XbY7XZYrVaYTCZUV1fD4XAAAGQyGV2yiUQiREVFQalUIi4uDrGxsUhOTqbEJJFIaE4eKbdCrCiWkMYzv8hDFbisEVqyZAmam5vx2muvoaSkBGlpaSgoKKDpQePBtCcgtncWUW66XC68+eabcLvdeOqpp5CXlxdAUGSJBuAq0527LCOW0tDQEC5duoS33noL58+fR3t7O4xGI7Zu3YoVK1YgJSWFqmq5YH0VoaJH0xmj+dkmcqzxvE5ArgGxgIh2qKqqCh0dHUhOTqZLKG7kiiu1IH8LhUIaNSMgljixFogsw+12w2azwWq1oru7my7pBgYGYDab0dbWhra2NpjNZtTV1WF4eJieD1GBi0QiKBQKuoTT6XSQyWRQKpXQarVISUmBXq9HYmJi0DpQ7DmS38SqZx3MCoUCa9asgcViwXvvvYeXXnoJycnJyMnJCcitG8s1nfYExCULn8+HDz74AJ9//jm2b9+OLVu2UHm50+mklQcJyH7Dw8MQCoVUNc3mNnV1dWH//v0oKSlBZWUlhEIh1q1bh8cffxxz586lamqPxxOQU8S9QLcL4Uw2cNXefr8fiYmJmDNnDi5cuICysjIsWLAgwF83URB/ISEy1urV6XQBSxgy75xOJxwOB3WWk6RhItSsqalBT08PdZT39vZieHgYHo8HPp8PAoGAEg6fz6dCTI1GA71ejxkzZkCv18NoNEIul0MqlYLP51MCBa5IQsjxUlNT8dRTT+Gbb77BqVOnsHPnTvzsZz9DamrquMZjWhMQGxonlsdXX32Fl156Cenp6di0aRNiYmLoe0Roxlo6ZH/WP0B+Dw4O4osvvsDu3btRVlYGm82Gu+66C5s2bcKSJUug1+vpuRCfDxAmmskG1rol1RBUKhWVRpSXl8PhcECr1Y66dBnvdQ1mQbEPTEJ4SqWSWlGsdUKWeB6PhxKO3W5HR0cHzccjlhTxSfX19aG+vh5DQ0OUTIRCIfh8PkQiEWQyGVQqFVQqFRISEhAfH4/4+Hga4WOXfnFxcXj22WcxMDCA999/H3K5HL/61a8QExMz5jGYlgTEThJWsNXa2oqXX34Zg4OD+OUvf4nMzEwMDw9DJBJRRx4BN4JATF4yQZqbm/H222/j0KFDaGpqglKpxDPPPIPNmzfDYDBQpyAhNFKXJxzdmnwg/j5uqd05c+ZArVZTMaNWqw1QoQdzZI8Ho+3DkhL5n2t9iUSiqx6aIyMjmDNnDoArFpTX64Xb7cbAwABsNhtsNhucTicsFgva29tRX1+P1tZWVFVVobe3Fw0NDTS6RuZwZGQk5HI5lEplQMkVYhkNDw9j7969WLRoEVauXDnmMZiWBARcHSYfGRnBvn37cO7cOaxatQrLli2j4imfz0eXV2RAyTHY9bzP50N/fz9OnDiB119/HWfOnIFYLMbSpUvxi1/8AvPnz6c92VniYUOlYUw+cIvsk2udk5ODhIQENDQ0oLm5GdnZ2QCufjhNxLELBGbWj8X3R7q2ckWGZN5yw+8+n4+KWgHQvDZy7l6vl0bhiCOe+KBMJhMqKytRW1uL9vZ22O12DA4Owmq1wmw2w+1202YJbrebfh77GWPBtLsrgsnPR0ZGcPLkSbz99tt44IEH8PTTT0MsFlOfEFmicaMbrLrW5XLh0qVLKC4uRmlpKaxWK+644w4UFRVh/fr10Gq1EIvF8Hq99InBOrPH45gL4+aCPKBYHYvf70d0dDRycnJQXV2NpqYmGhENFc7+oUuwYMTGIthc8vv9ASJGruaHgJ3LJOJHfDxsRFCj0cBgMCA/Px8bNmygVpTL5aIVM7u6umA2m1FRUYH//ve/6OnpoS3CrVbruMZgyhFQsItPXiMThC1dwePxYDab8cILL2BwcBBFRUWYN2/eVRed+5s4mCMjI2E2m7Fnzx7s2rULDQ0NEIlEeOyxx/Doo4/SVsgA6BKLnBN7bmHiGR3sGAUT0N1ocK0H8nvVqlX4+OOPcf78eWzfvh0ymey6ZIGzGKsFFGrfUMcZ7TOAwH5vbLSXVIcg5Mbn8yGVSiGXy5GRkQGr1YrPP/8c+/btg9VqxdDQEJYuXYonn3wS+fn54zr/KUdAXLCTlNXtEGGg3W7Hq6++ivLycvzud79DXl4eRCJRAFkAV54mbJjcbrdTy+nUqVPw+XyYP38+Hn/8cRQWFkIsFgc8ZbgDHxYRTh0Ei0gKhULk5uZCLpfj9OnTtD7QdIXH46H3BMnvIn4lYiV+++232Lt3L/bu3Quz2Yz4+HgUFRWhqKgIOp1u3GVrpjwBEbC5WGQ9y+fzcezYMRw9ehR33XUXtm/fDrVaTcszsA5Ftnyo2+1GbW0tDhw4gH379qG9vR1paWlYvXo1tm7dCqPRSJdZwZ5cP9Q5eTsimMP1Vosx/X4/NBoNsrKycOzYMVRWVk67fmHsnCWEQ5ZoLPm0tLTgs88+w+7du1FRUQGxWIw1a9Zgy5YtWLRoERQKBVV2c9s2jYYpTUDsmpZEp/h8PnXK1dXV4d1334VYLMYf/vAHaLVaGvEg20ZEXC4vSZx7ZrMZR48exVtvvYWamhrw+XxanZBUSCRLOzYVg0WYdCYGrg9jMkAgEGDRokU4deoUDhw4gMWLF9M5MNXBJXnW7QBcfqi7XC7U1dXh1VdfxfHjx+FyuZCZmYnHHnsMP/nJT6DRaAJK0Yy3C8qUJSBuKgQQqKFob2/H3//+d9TX1+O5557DokWLaN4MUXXy+Xxqdg4MDODSpUvYu3cvSkpKMDg4iNzcXGzZsgX3338/kpOTA9TRk/FmmWpgHyDB3rvViIi4nKyamZmJyMhIHD9+HHa7PSCyNNXBWkBs6ZLh4WGYTCaUlpbiX//6F21TtHXrVmzYsAE5OTlUUAlcCfnflvWAWEWp2+2Gz+fD4cOH8cknn2DJkiVYtWoVxGIxtYwAUDWzz+dDdXU1Dh8+jE8//RTV1dXQaDTYunUr1qxZg3nz5kGpVAK4QnDkScG1gEZbeoWjYKNjMi7ByMPMYDAgOTkZTU1N+O6776DRaKb0deRG0QgIifT19eHEiRMoKSnB2bNn4ff7cc8992DdunVYsmQJ4uPjqYuDuDHYOkfjwZQjIHbQ2KUQWX/y+XycO3cOH374IfR6PXbs2IGEhATqsyEYGRnBwMAAjh8/jl27duH8+fMYGRnB4sWLUVRUhPz8fGg0GojF4oCn9Ghq5tEm5VSesNcbbKSR9b/x+Xy43W6IRCIq/AxVOuJGghvBTEtLw4wZM1BbW4svv/wS+fn59GZjI0Y3M9oZikS427DnxCUbEvljnc+VlZXYtWsXSktLYbFYkJGRgZ/+9KdYtmwZ0tPTAxTjAK4qDXxbWkAAaMiwtbUVxcXFMJlMeP7555Gbm0uFZcDlARsYGEBjYyP27NmDQ4cOoaOjA1lZWVi+fDk2btyIrKwsOvlHRkYwNDR00zp83g5gax75fD4olUokJiZCqVTSm4b457hyiZsJUqlALpcjOzsbBw8eRENDAzweD03kZKsW3iwEsxbHApasSMoJeYg3Nzfj8OHDOHz4MC5cuACBQICHHnoIDz74IPLz86FQKOgKgG3H80Ovy5QlIPaLE6Kw2+04ePAgvvrqKxQWFmLFihUBIXe3243m5mYcO3YM+/fvR1lZGe37vn79eixevJjW+CUqVa7qlPvZYYwfrCXK4/Fw3333ISMjAxqNBnK5/Krtb+V4kxvtnnvugVwuR1VVFXp6eqDT6ajVcL11QRM5x/FsR3IZBQIB+vv7cfbsWezduxcnT56EzWZDfn4+CgsLsXz5cqSkpAQQDbc7yg/FlCUgAjZsePHiRbz//vuIiorC9u3baQJfZGQkrFYrKioqsHPnThw8eBBerxdz587Ftm3bsHr1asTGxtKSHWQfcny2LU+YfH442Ken3+9HUlISkpKSAFzxs7EBhVsFtsBcXl4eNBoNGhoa0NXVBb1eHzIKeqMRLPAyGtg5S/a12+1oamrCoUOH8NFHH+H7779HUlISNm3ahMLCQuTm5l6l6SEWH7dW+Q/BlCMgLvMSAjKZTHj33XfhcDjw7LPPwmAw0KhXc3MzPvroI+zfvx/19fVISUnB/fffj02bNmHu3Lm0PxTbKYNVxobzuK4vWCczK6EgYPOjbrUjmvg71Go1Zs+ejSNHjqCyshILFy6klQzZc74Z5zPa/9d6j5CmWCyGUqnE/PnzYTAYwOPxoNVqMXfuXERHRwf4tsh+ZCyuZ3PGKXlncS80STT96quvsHnzZtx///1QKBTo6urC8ePHUVpaSpXMK1euxMaNG7Fo0SJoNJoAoiGWzmSY+NMZxGpg28+wNXBYQrqVFhBbxmVkZAQPP/wwvvjiCxw7dgyPPPIIvRFvteL9WsTHOqFZy5IU6WfTMMj3IYmv3OALuWY/tFknwaQmoGCha9Y34/P54PV6UVZWhn379sFoNGLz5s1QqVSoqKjAa6+9htOnT6OtrQ2ZmZl45JFHsHr1asyYMSPguOQ3K6gKL7VuPLgRFPIa+//NQLDrzSYqR0ZGwuv14p577oFUKsXJkyep5uVmkyUhCFY8S173+XxwOp3UYUxe8/v91HHOZuCzRfpC5cJxO12w5TmuByY1AQUDIQm32w2hUAiz2Yw///nPcLlc+P3vfw+dToedO3figw8+QH19PcRiMbZs2YJt27Zh/vz5kEqlAALD6WGyuTWY7OPOEiQpRZqTk4OzZ8/iyy+/REFBwS0hShJU8fv9sNlsaG5upsuq5ORkWmuax+NBo9FArVZjYGAA9fX1kMlkSEpKovWPuNYRwWhJrdcTkz5bkmv9AKC9q+12O9577z2Ul5fjvvvug91ux3PPPYeXX34Z9fX1mDNnDp5//nn86U9/wt133x3QyTFMPGEQBItysvODWAhCoRA/+tGP4PV6ceDAgau2v9FgSYLkaVksFuzevRubN2/G3r174XK58L///Q+//e1v8fTTT6OmpgYejwdVVVV45ZVXcPLkyaD+Nu735o7BjcKkJyACVmwYEXG59MaJEydQXFyMzMxM2O12vPjiiyguLobP58MTTzyB119/Hdu2bYNOp6PFx4jjMNRPGGEAwcuD+Hw+ZGVlQSgU4uuvv6ZdK4IJ/W4EuG2bBAIBDAYD1q9fD6vVitmzZ0OlUmHhwoWYNWsWeDwe4uPjaRBlyZIlWL16NcRi8VXh9Fvlx5rUS7Bg6QzEMdbT04N33nkHJpMJHo8HFy9eBJ/Px/Lly/HEE09QJzMJGZILF2ygw9nrYXDBJR/yd0ZGBhISEtDW1oaqqiosWLBg1CJl1xOsf5L4dfx+PzIyMhAdHY3Gxkb6gPV4PLDZbHC5XLDZbLhw4QKWLFlCK3ayx2S7wdxsTGoCYkEGf2RkBJ2dnfjrX/+KEydOwOVyoa2tDVlZWXjkkUewatUqJCYmQiwW004WZD8ej0fJKJgTLWwBhcEFe9MLBAIYjUbo9Xq0tLTgm2++wZ133km3vdEERJy/5JyEQiFGRkagUChgNBrR3d0Nr9eLS5cuQavVwmq1oqGhAQ6HAzExMUhPT6dZAdzo4804/2CYtEswrriKDP7g4CBKS0tx5MgR2pfb7/ejubkZxcXFePnll/HOO+/g9OnT6OjogN1uh9frBQDaSoeQECkjydYSYomO1BUKBrJNKF0Se/5sNIL7XrDjstuG2mY8ZMluz55zeNk5OtjlCbk5pVIpZs2aheHhYdTU1NB6yKFu3usxvux1ChalioyMRHZ2NhobG9HV1YWOjg6sXLkSYrEYFy5cQF1dHZYuXUqtH2708VZa/VPGAiLo7OyETCbDggULoNFoaF9up9OJixcvory8nN7EPp8PMpkMOp0OaWlpMBqNMBgM0Gq10Gq1iIqKgkKhoBX+Sd8kADS7l9VGcDuYkoL2wcKwbBiUHA+4koAJXCmJyZXyjzYhJjKhIyIiqIKV/bwwJoa1a9fin//8J7755hv09fXR8hzB0nbGi2BLuWBKZvZvt9sNo9GIY8eO4dNPP8V9992H6OhoZGdn49SpUzAajdBoNFftPxkwaQkozWb3PwAADmNJREFU2IWMiIjAzJkzMWPGDKxevRq9vb2UgEhDts7OTtpFsre3l753/vx5nDlzhnYAiIyMhEqlglqthlqthkqlQlRUFO3DnZiYCJ1Oh/j4eKhUKkRGRlLnHVFHcysiAoGkAgQKuNjXryWfv5bidbwTnSwhiHaK7VMWxvgwb948qNVq1NXVobu7GwkJCQFLIxbXuk6sNcp9jYtQRCQQCBAbGwuXy4X4+HhkZGTA4XAgOzsbvb29mDt3Lq1YGCagCYJYFCMjIxCJRNDpdIiLi6O6CNKNAgCNlpEllslkQl1dHaqrq/Hdd9/BbDajr68PLpcLVqsVXV1dcLlc8Hq91GlNBFgCgQASiQQJCQnIzMxEVlYW0tLSYDAYoFarAQAKhQJyuTygkySxflhribzOOsRZ64ddCnLVqQTBxJljAUs2JPWE+MXCGB/kcjmWLVuGgwcPoqKiAvPmzQsoyQGM7fpci3xC6XK42/v9fsycORM///nPsWLFCvB4PMhkMtxxxx3Q6/WYNWsW3XayXe8I/2SjxGsglM+F5KkE8+azNzaB0+lEV1cX2traYDKZ0NnZCavViv7+fnR3d6O/vx82mw0WiwV2u51OsKGhIUpUIpEI8fHxSEhIoL3E4+LiEB0dDYVCAY1GA41GA4VCQa0nkUhECYBV0nJbrhCECvGOZ+3u91/uAdXS0oLa2lpoNBrk5eUF9JIK42pwyZ51SP/73//Gjh07sG7dOuzateuqSNh4l9OjWT3cz+fuQx4kpHSMTCajfk/irGb9m9dLxXw9MOktoFBPfK6Ck13acCdCsKeHRCKhhabI637/ZYU123+b7SJJlnednZ0wm82w2WzweDy0q6TL5aLLO9LKllhHSqUSSqUSOp0OKSkpiIuLQ0xMDKKjoyGRSCCTySAWiyGVSiESiQIaJIYak7EiIiICJpMJb7zxBs6ePYuHHnoIeXl5tzzbfCpj1qxZiI6ORkVFBfr7+wN8LGMl9GAqZGIhk/dDERk7B9g2zhERERgaGqKWNVsyNZQM5VZi0hPQaA45ILCfEXl/tH1Gk5hHRERAKpVCKpVCq9UGvE98OKT2EClf2dbWRkt1tre3w2w2U+KyWCzo6OjA4OAg7d9NohDE8pBKpdBoNEhPT0dKSgr0ej20Wi00Gg2USiUUCgViYmKgUqkgkUjoRCOdPVjiDfVk8/v9MBgMeOCBB1BVVQW9Xj9hHxAZAzYhMdRNdzO0MTcSofyQXq8XycnJyM7ORk1NDcrKyrBy5coxjSfrI2StEvZBOjw8DL/fj++++w7Nzc2w2WyQSCTQ6/XIyMiARCKhfkiupIRcF3I88sNN9p0smPQENFnALpFIHg4AZGdnIysrC8AVparb7UZ3dzd6e3vp776+PthsNvpaT08Pent74XA44HA4cObMGZw8eRJer5eazQqFAnq9HhqNhlpLarUaaWlpWLlyJdRqdYBZHcqiIROwp6cHHo8HarWaTtTxkBDJkGY/i/V1sZjOSzsejwepVIrc3FyUl5fjs88+o62+geBWNxs2J6+RcWMjkw6HA/39/Th06BD279+PyspKiEQiFBQUYOvWrfB4PJDJZAG+RPa8uMt57rlMtmsybQjoZg0s1yfDPs3ITSmVSmEwGGAwGOg+w8PDGBoagtPphN1uh8vlgsvlgt1uh91uR3t7O9VwWCwWDAwM0KVgZ2cnLBYLPB4PRCIRFi5ciMWLF1Mn+LV0PcQH1NjYCL/fj9jY2AkpX0mNGHbie73egPa+5POC+d3GOraTHcTymDlzJoDLdZQdDgdUKlWAozfY9+FqvFjrpa+vD+fOnUNxcTG+/PJLDA4OYs6cObQYvMFggFgsplZPsGvIbZJwrRXErca0IaCbDe7anH3asCY1eZ/P54PP50MikVDiAK50IgBAOwwAl7UdfX19aG5uRl9fH/3p6uqifiOv13tVd9dg8Pv9cDqdMJvNiIuLg0qlGnX7UPD5fPB4PFRdzuqJyHfgZlhPRxCn7+zZs6HVatHZ2YmqqiosWrSIXv9gFhCxWvz+yx0lSEkNn8+HxsZGlJaW4t1330VdXR3i4uLw6KOPYsOGDZg5cyakUincbncA+RA5RaiAxGQjm2AIE9AYEcoZziUasl2o3mHkxiU3LFnLE50OAenHnZqaGuBUdDgc8Hg8ASRyrYnG4/EwMDCArq4uZGRkQCaTTcgXQCw5kUhErSC2hC33+473+FPFZ0TGPDk5GTqdDpcuXUJTUxPuvvvuaxIBW01QKBSis7MTp06dolaPUChEYWEh1q5di4KCAqhUKtpCigge2ZrOU2XMQiFMQGPEaAIzrgOctYC4+5LXWEuBdRqy+5LQLktMpM4164NhrbFgVkdERATMZjNaWlpog8aJoLe3F/v27YPH40FMTAytNaPRaKj0gOuLGo8VNFVuJB6PB4/HA4VCgfz8fJSXl6OqqgpOpzNo73j2uhKLZ3BwENXV1dizZw8++eQTWCwWpKen48EHH8SKFStgNBohFAoDnNWsz4g9NotQ701WogoT0BgRylk7FtOXOxG4ArTRwq2hECziRY7DTQ0ZHh5Gb28vmpubYTQaIRaLwePxAho1kvMZ7fP7+vrwj3/8A3V1dZDJZDSVhSjJlUolYmJikJSUhKysLKSmpiI2NhbR0dEBbY5Ia5eIiIiAsqxA8ChRsHHhvs76nEItg0OR81jBHodYIAUFBXj11Vfx7bffwmKxICoqihKw0+mEWCwOcDST7i3FxcV48803UVtbC6FQiPXr1+PJJ5+kyy3uebORrNF8TKNFeScjwgQ0zcDemERP4na7YTaboVaroVQqJ6yClkqlWLp0KZKSktDf3w+HwwG32436+no4nU54vV6IRCIqtpRKpZDL5ZDJZNBoNEhJSUFKSgri4+OhVquhUCjoNkqlkhaMI0sLtvYN9/uR70gQTDl+Lf8ccCUsHUpGEAyEYHi8y11TSXZ8X18fkpOTKbFLpVKq0hcKhejv78eFCxfwwQcf4OjRo/B4PMjPz0dRUREKCgpoI0yuH2ksy+ypijAB3WRMxO8yVrA3DKvVcblcaGhooAQw0WZ6er0ef/zjH+H3X643093djYGBAXR3d8NqtaKnp4f+bzKZYDKZ0NzcTJ2nhFxIHp1MJqPWE1GNEytKq9UiKSkJer0esbGxVANFliKsLyWUFUTGhCWgYNtwx+5aYM9Dp9Nh8eLF+M9//oPz588jJycHAoEAw8PD1MnM5/NRXV2NDz/8EEeOHKGdWbZu3Yply5Zh9uzZEAgEAYrl8VrEUxVhAppGYB3gg4ODdFL39/ejrq4OPp8PNpttwgWoIiIiEBsbSwlMq9VCIpHQ4wwNDdFUFafTCbfbDa/XC4fDgfb2dlRXV+Pbb79FfX09WltbYTKZ0NraGhC6Jrl4EokEYrEYQqEQIpEIKpUKaWlpmD17NnJycmA0GhEbGwu5XE59WiS6RIpyESuFXa6yxEVKsoQSZYa6+X0+H+2WK5fLsXz5cpSUlODcuXN44oknaIkXiUQCu92Oo0eP4i9/+QvKysrg9Xrx4x//GM888wwKCgogEomoP5BbKvV2wJTLBQtjdBDrhPRvqqmpwZEjR3Du3DlERERgzZo1KCwshN/vR1RUVFBfQygEc4KyCBX5I7WV2B+3203V4q2trfj+++/R3t5O5QakigERanq9XqokJ0m/kZGRiIqKgl6vR1JSElWS63Q6KJVKWmaFpMSQfYhzfyyO2VDvExIeGhpCWVkZioqKYDQasXPnTiQmJsLlcqGiogIffvgh9u/fj/7+fsycORMbN25EYWEhUlNTr+qxRRz403nJxUWYgKYZuKJEv99PqwIQRzAbBRutM0KwY5OlHds1lGs9BHPCs8slNoJH9icO6pGREbhcLqoItlgssNlssNvtMJvNaG1tRWNjI5qamtDV1QWn00mPQeQMPB4PEokE0dHRUCqVAQ5yjUaD1NRUpKam0jB6VFTUuJajZAno8XggEAhQX1+P5557DvX19fjb3/6GO+64AyUlJSgpKUFFRQUkEgk2bNiALVu2YN68ebQ9TjD1+mjkMx1JKUxA0wzs5WTJKFTEZCJanR+67fW6kciSsqGhARcvXsT58+dRW1uLpqYm2Gw2aqWQJRNLgqzUgUTu5s6di3nz5mHOnDmYMWMGFAoFBAJBgMaJ7RNG/h4cHMRvfvMbvPfeeygsLERPTw/OnDkDj8eD3NxcvPDCC1iwYAFUKlUAgZNzuV38PcEQJqBphmAEFAo3moBuNIJpoEiFSofDgba2NrS0tKClpYX2yrLZbLBarbBYLDQ/z+120/A/scKAy5qr2NhYpKWlITU1FYmJiTR6R/xPMTExiIqKwptvvolXXnmFWphxcXHYtGkTNm7ciNTUVBpaJyWByfmTc2d/304IE9A0w422OiYTCOEAo0f0CCn5/ZfrOdlsNgwMDFA/k81mQ19fH9ra2tDY2IjW1lYa4WMrH5AidzKZDDExMRAIBLTcSnd3N5qamhAZGYlVq1Zh8+bNuPfeeyGTyQLytlg5AIvpeH3GgjABTTPcTgQUDFztEPu9uQ5e7pKMG41zOBxoaWlBeXk5Kioq0NTUBIvFArPZDKfTCY/HA4/Hg4GBAVqcbt26dXj66adhNBrhdDoDBJck2sZ1gN8u1yYYwgQ0zfBDcrGmGoKpncnr3G3I38RJzRIOexzyP5vxzx7b6/XC4/Ggs7MTlZWV6OjogNPphEQiQUZGBu3AO5qaO9g5364IE9A0w2i5QMEwHW6CscgHgEDBYjAC4KaDcAWMJAWDm0LC/s9+HtuXjv3c2zHcHgphAgrjtsH1muoTEXCO5/XbCWEldBhhjBNh4rh+CBNQGLcNwsQx+TC5SuSHEUYYtxXCBBRGGGHcMoQJKIwwwrhlCBNQGGGEccvwf3PPsS+jLcXQAAAAAElFTkSuQmCC;" parent="8" vertex="1">
                    <mxGeometry x="520" y="100" width="230" height="207.64" as="geometry"/>
                </mxCell>
            </root>
        </mxGraphModel>
    </diagram>
</mxfile>